<?xml version="1.0" encoding="us-ascii" standalone="no"?><svg xmlns="http://www.w3.org/2000/svg" xmlns:xlink="http://www.w3.org/1999/xlink" contentStyleType="text/css" height="903px" preserveAspectRatio="none" style="width:714px;height:903px;background:#FFFFFF;" version="1.1" viewBox="0 0 714 903" width="714px" zoomAndPan="magnify"><defs/><g><!--cluster klondike--><g id="cluster_klondike"><path d="M20.72,6.602 L82.72,6.602 A3.75,3.75 0 0 1 85.22,9.102 L92.22,31.6699 L704.72,31.6699 A2.5,2.5 0 0 1 707.22,34.1699 L707.22,893.512 A2.5,2.5 0 0 1 704.72,896.012 L20.72,896.012 A2.5,2.5 0 0 1 18.22,893.512 L18.22,9.102 A2.5,2.5 0 0 1 20.72,6.602 " fill="none" style="stroke:#000000;stroke-width:1.5;"/><line style="stroke:#000000;stroke-width:1.5;" x1="18.22" x2="92.22" y1="31.6699" y2="31.6699"/><text fill="#000000" font-family="sans-serif" font-size="14" font-weight="bold" lengthAdjust="spacing" textLength="61" x="22.22" y="23.5679">klondike</text></g><!--cluster modelo--><g id="cluster_modelo"><path d="M363.72,139.602 L417.72,139.602 A3.75,3.75 0 0 1 420.22,142.102 L427.22,164.6699 L680.72,164.6699 A2.5,2.5 0 0 1 683.22,167.1699 L683.22,869.512 A2.5,2.5 0 0 1 680.72,872.012 L363.72,872.012 A2.5,2.5 0 0 1 361.22,869.512 L361.22,142.102 A2.5,2.5 0 0 1 363.72,139.602 " fill="none" style="stroke:#000000;stroke-width:1.5;"/><line style="stroke:#000000;stroke-width:1.5;" x1="361.22" x2="427.22" y1="164.6699" y2="164.6699"/><text fill="#000000" font-family="sans-serif" font-size="14" font-weight="bold" lengthAdjust="spacing" textLength="53" x="365.22" y="156.5679">modelo</text></g><!--cluster utils--><g id="cluster_utils"><path d="M94.72,514.012 L125.72,514.012 A3.75,3.75 0 0 1 128.22,516.512 L135.22,539.0799 L334.72,539.0799 A2.5,2.5 0 0 1 337.22,541.5799 L337.22,613.512 A2.5,2.5 0 0 1 334.72,616.012 L94.72,616.012 A2.5,2.5 0 0 1 92.22,613.512 L92.22,516.512 A2.5,2.5 0 0 1 94.72,514.012 " fill="none" style="stroke:#000000;stroke-width:1.5;"/><line style="stroke:#000000;stroke-width:1.5;" x1="92.22" x2="135.22" y1="539.0799" y2="539.0799"/><text fill="#000000" font-family="sans-serif" font-size="14" font-weight="bold" lengthAdjust="spacing" textLength="30" x="96.22" y="530.9779">utils</text></g><!--class Klondike--><g id="elem_Klondike"><rect codeLine="3" fill="#F1F1F1" height="48" id="Klondike" rx="2.5" ry="2.5" style="stroke:#181818;stroke-width:0.5;" width="90" x="152.22" y="234.812"/><ellipse cx="167.22" cy="250.812" fill="#ADD1B2" rx="11" ry="11" style="stroke:#181818;stroke-width:1.0;"/><path d="M166.6888,257.7339 Q164.9388,257.7339 163.7981,256.9995 Q162.6731,256.2495 162.1106,254.9057 Q161.5638,253.5464 161.5638,251.7495 Q161.5638,249.7182 162.22,248.2651 Q162.8763,246.812 164.1575,246.0307 Q165.4388,245.2495 167.3138,245.2495 Q168.2044,245.2495 168.8763,245.437 Q169.5481,245.6089 170.2356,245.9526 L169.4231,247.9682 Q168.7981,247.6557 168.2513,247.5307 Q167.72,247.4057 167.2356,247.4057 Q166.0638,247.4057 165.3606,247.937 Q164.6575,248.4682 164.3606,249.4214 Q164.0638,250.3745 164.0638,251.6401 Q164.0638,253.6557 164.7825,254.6245 Q165.5013,255.5776 167.095,255.5776 Q167.6888,255.5776 168.3138,255.4214 Q168.9388,255.2651 169.7669,254.8901 L169.7669,257.1089 Q169.0325,257.4214 168.2356,257.5776 Q167.4544,257.7339 166.6888,257.7339 Z " fill="#000000"/><text fill="#000000" font-family="sans-serif" font-size="14" lengthAdjust="spacing" textLength="58" x="181.22" y="256.244">Klondike</text><line style="stroke:#181818;stroke-width:0.5;" x1="153.22" x2="241.22" y1="266.812" y2="266.812"/><line style="stroke:#181818;stroke-width:0.5;" x1="153.22" x2="241.22" y1="274.812" y2="274.812"/></g><!--class ClienteKlondike--><g id="elem_ClienteKlondike"><rect codeLine="4" fill="#F1F1F1" height="48" id="ClienteKlondike" rx="2.5" ry="2.5" style="stroke:#181818;stroke-width:0.5;" width="137" x="128.72" y="44.602"/><ellipse cx="143.72" cy="60.602" fill="#ADD1B2" rx="11" ry="11" style="stroke:#181818;stroke-width:1.0;"/><path d="M143.1888,67.5239 Q141.4388,67.5239 140.2981,66.7895 Q139.1731,66.0395 138.6106,64.6957 Q138.0638,63.3364 138.0638,61.5395 Q138.0638,59.5082 138.72,58.0551 Q139.3763,56.602 140.6575,55.8207 Q141.9388,55.0395 143.8138,55.0395 Q144.7044,55.0395 145.3763,55.227 Q146.0481,55.3989 146.7356,55.7426 L145.9231,57.7582 Q145.2981,57.4457 144.7513,57.3207 Q144.22,57.1957 143.7356,57.1957 Q142.5638,57.1957 141.8606,57.727 Q141.1575,58.2582 140.8606,59.2114 Q140.5638,60.1645 140.5638,61.4301 Q140.5638,63.4457 141.2825,64.4145 Q142.0013,65.3676 143.595,65.3676 Q144.1888,65.3676 144.8138,65.2114 Q145.4388,65.0551 146.2669,64.6801 L146.2669,66.8989 Q145.5325,67.2114 144.7356,67.3676 Q143.9544,67.5239 143.1888,67.5239 Z " fill="#000000"/><text fill="#000000" font-family="sans-serif" font-size="14" lengthAdjust="spacing" textLength="105" x="157.72" y="66.034">ClienteKlondike</text><line style="stroke:#181818;stroke-width:0.5;" x1="129.72" x2="264.72" y1="76.602" y2="76.602"/><line style="stroke:#181818;stroke-width:0.5;" x1="129.72" x2="264.72" y1="84.602" y2="84.602"/></g><!--class Menu--><g id="elem_Menu"><rect codeLine="5" fill="#F1F1F1" height="48" id="Menu" rx="2.5" ry="2.5" style="stroke:#181818;stroke-width:0.5;" width="71" x="197.72" y="401.012"/><ellipse cx="212.72" cy="417.012" fill="#ADD1B2" rx="11" ry="11" style="stroke:#181818;stroke-width:1.0;"/><path d="M212.1888,423.9339 Q210.4388,423.9339 209.2981,423.1995 Q208.1731,422.4495 207.6106,421.1057 Q207.0638,419.7464 207.0638,417.9495 Q207.0638,415.9182 207.72,414.4651 Q208.3763,413.012 209.6575,412.2307 Q210.9388,411.4495 212.8138,411.4495 Q213.7044,411.4495 214.3763,411.637 Q215.0481,411.8089 215.7356,412.1526 L214.9231,414.1682 Q214.2981,413.8557 213.7513,413.7307 Q213.22,413.6057 212.7356,413.6057 Q211.5638,413.6057 210.8606,414.137 Q210.1575,414.6682 209.8606,415.6214 Q209.5638,416.5745 209.5638,417.8401 Q209.5638,419.8557 210.2825,420.8245 Q211.0013,421.7776 212.595,421.7776 Q213.1888,421.7776 213.8138,421.6214 Q214.4388,421.4651 215.2669,421.0901 L215.2669,423.3089 Q214.5325,423.6214 213.7356,423.7776 Q212.9544,423.9339 212.1888,423.9339 Z " fill="#000000"/><text fill="#000000" font-family="sans-serif" font-size="14" lengthAdjust="spacing" textLength="39" x="226.72" y="422.444">Menu</text><line style="stroke:#181818;stroke-width:0.5;" x1="198.72" x2="267.72" y1="433.012" y2="433.012"/><line style="stroke:#181818;stroke-width:0.5;" x1="198.72" x2="267.72" y1="441.012" y2="441.012"/></g><!--class Mazo--><g id="elem_Mazo"><rect codeLine="8" fill="#F1F1F1" height="162.4075" id="Mazo" rx="2.5" ry="2.5" style="stroke:#181818;stroke-width:0.5;" width="180" x="418.22" y="177.602"/><ellipse cx="485.97" cy="193.602" fill="#ADD1B2" rx="11" ry="11" style="stroke:#181818;stroke-width:1.0;"/><path d="M485.4388,200.5239 Q483.6888,200.5239 482.5481,199.7895 Q481.4231,199.0395 480.8606,197.6957 Q480.3138,196.3364 480.3138,194.5395 Q480.3138,192.5082 480.97,191.0551 Q481.6263,189.602 482.9075,188.8207 Q484.1888,188.0395 486.0638,188.0395 Q486.9544,188.0395 487.6263,188.227 Q488.2981,188.3989 488.9856,188.7426 L488.1731,190.7582 Q487.5481,190.4457 487.0013,190.3207 Q486.47,190.1957 485.9856,190.1957 Q484.8138,190.1957 484.1106,190.727 Q483.4075,191.2582 483.1106,192.2114 Q482.8138,193.1645 482.8138,194.4301 Q482.8138,196.4457 483.5325,197.4145 Q484.2513,198.3676 485.845,198.3676 Q486.4388,198.3676 487.0638,198.2114 Q487.6888,198.0551 488.5169,197.6801 L488.5169,199.8989 Q487.7825,200.2114 486.9856,200.3676 Q486.2044,200.5239 485.4388,200.5239 Z " fill="#000000"/><text fill="#000000" font-family="sans-serif" font-size="14" lengthAdjust="spacing" textLength="36" x="506.47" y="199.034">Mazo</text><line style="stroke:#181818;stroke-width:0.5;" x1="419.22" x2="597.22" y1="209.602" y2="209.602"/><polygon fill="none" points="429.22,219.6359,433.22,223.6359,429.22,227.6359,425.22,223.6359" style="stroke:#B38D22;stroke-width:1.0;"/><text fill="#000000" font-family="sans-serif" font-size="14" lengthAdjust="spacing" textLength="95" x="438.22" y="228.5679">Carta[] cartas;</text><polygon fill="none" points="429.22,238.7039,433.22,242.7039,429.22,246.7039,425.22,242.7039" style="stroke:#B38D22;stroke-width:1.0;"/><text fill="#000000" font-family="sans-serif" font-size="14" lengthAdjust="spacing" textLength="69" x="438.22" y="247.6358">int ultima;</text><polygon fill="none" points="429.22,257.7718,433.22,261.7718,429.22,265.7718,425.22,261.7718" style="stroke:#B38D22;stroke-width:1.0;"/><text fill="#000000" font-family="sans-serif" font-size="14" lengthAdjust="spacing" textLength="112" x="438.22" y="266.7038">Console console;</text><line style="stroke:#181818;stroke-width:1.0;" x1="419.22" x2="597.22" y1="274.8057" y2="274.8057"/><ellipse cx="429.22" cy="289.8397" fill="#84BE84" rx="3" ry="3" style="stroke:#038048;stroke-width:1.0;"/><text fill="#000000" font-family="sans-serif" font-size="14" lengthAdjust="spacing" textLength="154" x="438.22" y="293.7717">void poner(Carta carta)</text><ellipse cx="429.22" cy="308.9076" fill="#84BE84" rx="3" ry="3" style="stroke:#038048;stroke-width:1.0;"/><text fill="#000000" font-family="sans-serif" font-size="14" lengthAdjust="spacing" textLength="100" x="438.22" y="312.8396">boolean vacia()</text><ellipse cx="429.22" cy="327.9755" fill="#84BE84" rx="3" ry="3" style="stroke:#038048;stroke-width:1.0;"/><text fill="#000000" font-family="sans-serif" font-size="14" lengthAdjust="spacing" textLength="84" x="438.22" y="331.9075">Carta sacar()</text></g><!--class Baraja--><g id="elem_Baraja"><rect codeLine="18" fill="#F1F1F1" height="48" id="Baraja" rx="2.5" ry="2.5" style="stroke:#181818;stroke-width:0.5;" width="75" x="377.72" y="401.012"/><ellipse cx="392.72" cy="417.012" fill="#ADD1B2" rx="11" ry="11" style="stroke:#181818;stroke-width:1.0;"/><path d="M392.1888,423.9339 Q390.4388,423.9339 389.2981,423.1995 Q388.1731,422.4495 387.6106,421.1057 Q387.0638,419.7464 387.0638,417.9495 Q387.0638,415.9182 387.72,414.4651 Q388.3763,413.012 389.6575,412.2307 Q390.9388,411.4495 392.8138,411.4495 Q393.7044,411.4495 394.3763,411.637 Q395.0481,411.8089 395.7356,412.1526 L394.9231,414.1682 Q394.2981,413.8557 393.7513,413.7307 Q393.22,413.6057 392.7356,413.6057 Q391.5638,413.6057 390.8606,414.137 Q390.1575,414.6682 389.8606,415.6214 Q389.5638,416.5745 389.5638,417.8401 Q389.5638,419.8557 390.2825,420.8245 Q391.0013,421.7776 392.595,421.7776 Q393.1888,421.7776 393.8138,421.6214 Q394.4388,421.4651 395.2669,421.0901 L395.2669,423.3089 Q394.5325,423.6214 393.7356,423.7776 Q392.9544,423.9339 392.1888,423.9339 Z " fill="#000000"/><text fill="#000000" font-family="sans-serif" font-size="14" lengthAdjust="spacing" textLength="43" x="406.72" y="422.444">Baraja</text><line style="stroke:#181818;stroke-width:0.5;" x1="378.72" x2="451.72" y1="433.012" y2="433.012"/><line style="stroke:#181818;stroke-width:0.5;" x1="378.72" x2="451.72" y1="441.012" y2="441.012"/></g><!--class Descarte--><g id="elem_Descarte"><rect codeLine="19" fill="#F1F1F1" height="48" id="Descarte" rx="2.5" ry="2.5" style="stroke:#181818;stroke-width:0.5;" width="91" x="377.72" y="552.012"/><ellipse cx="392.72" cy="568.012" fill="#ADD1B2" rx="11" ry="11" style="stroke:#181818;stroke-width:1.0;"/><path d="M392.1888,574.9339 Q390.4388,574.9339 389.2981,574.1995 Q388.1731,573.4495 387.6106,572.1057 Q387.0638,570.7464 387.0638,568.9495 Q387.0638,566.9182 387.72,565.4651 Q388.3763,564.012 389.6575,563.2307 Q390.9388,562.4495 392.8138,562.4495 Q393.7044,562.4495 394.3763,562.637 Q395.0481,562.8089 395.7356,563.1526 L394.9231,565.1682 Q394.2981,564.8557 393.7513,564.7307 Q393.22,564.6057 392.7356,564.6057 Q391.5638,564.6057 390.8606,565.137 Q390.1575,565.6682 389.8606,566.6214 Q389.5638,567.5745 389.5638,568.8401 Q389.5638,570.8557 390.2825,571.8245 Q391.0013,572.7776 392.595,572.7776 Q393.1888,572.7776 393.8138,572.6214 Q394.4388,572.4651 395.2669,572.0901 L395.2669,574.3089 Q394.5325,574.6214 393.7356,574.7776 Q392.9544,574.9339 392.1888,574.9339 Z " fill="#000000"/><text fill="#000000" font-family="sans-serif" font-size="14" lengthAdjust="spacing" textLength="59" x="406.72" y="573.444">Descarte</text><line style="stroke:#181818;stroke-width:0.5;" x1="378.72" x2="467.72" y1="584.012" y2="584.012"/><line style="stroke:#181818;stroke-width:0.5;" x1="378.72" x2="467.72" y1="592.012" y2="592.012"/></g><!--class Columna--><g id="elem_Columna"><rect codeLine="20" fill="#F1F1F1" height="48" id="Columna" rx="2.5" ry="2.5" style="stroke:#181818;stroke-width:0.5;" width="92" x="377.22" y="681.012"/><ellipse cx="392.22" cy="697.012" fill="#ADD1B2" rx="11" ry="11" style="stroke:#181818;stroke-width:1.0;"/><path d="M391.6888,703.9339 Q389.9388,703.9339 388.7981,703.1995 Q387.6731,702.4495 387.1106,701.1057 Q386.5638,699.7464 386.5638,697.9495 Q386.5638,695.9182 387.22,694.4651 Q387.8763,693.012 389.1575,692.2307 Q390.4388,691.4495 392.3138,691.4495 Q393.2044,691.4495 393.8763,691.637 Q394.5481,691.8089 395.2356,692.1526 L394.4231,694.1682 Q393.7981,693.8557 393.2513,693.7307 Q392.72,693.6057 392.2356,693.6057 Q391.0638,693.6057 390.3606,694.137 Q389.6575,694.6682 389.3606,695.6214 Q389.0638,696.5745 389.0638,697.8401 Q389.0638,699.8557 389.7825,700.8245 Q390.5013,701.7776 392.095,701.7776 Q392.6888,701.7776 393.3138,701.6214 Q393.9388,701.4651 394.7669,701.0901 L394.7669,703.3089 Q394.0325,703.6214 393.2356,703.7776 Q392.4544,703.9339 391.6888,703.9339 Z " fill="#000000"/><text fill="#000000" font-family="sans-serif" font-size="14" lengthAdjust="spacing" textLength="60" x="406.22" y="702.444">Columna</text><line style="stroke:#181818;stroke-width:0.5;" x1="378.22" x2="468.22" y1="713.012" y2="713.012"/><line style="stroke:#181818;stroke-width:0.5;" x1="378.22" x2="468.22" y1="721.012" y2="721.012"/></g><!--class Palo--><g id="elem_Palo"><rect codeLine="21" fill="#F1F1F1" height="48" id="Palo" rx="2.5" ry="2.5" style="stroke:#181818;stroke-width:0.5;" width="60" x="471.22" y="808.012"/><ellipse cx="486.22" cy="824.012" fill="#ADD1B2" rx="11" ry="11" style="stroke:#181818;stroke-width:1.0;"/><path d="M485.6888,830.9339 Q483.9388,830.9339 482.7981,830.1995 Q481.6731,829.4495 481.1106,828.1057 Q480.5638,826.7464 480.5638,824.9495 Q480.5638,822.9182 481.22,821.4651 Q481.8763,820.012 483.1575,819.2307 Q484.4388,818.4495 486.3138,818.4495 Q487.2044,818.4495 487.8763,818.637 Q488.5481,818.8089 489.2356,819.1526 L488.4231,821.1682 Q487.7981,820.8557 487.2513,820.7307 Q486.72,820.6057 486.2356,820.6057 Q485.0638,820.6057 484.3606,821.137 Q483.6575,821.6682 483.3606,822.6214 Q483.0638,823.5745 483.0638,824.8401 Q483.0638,826.8557 483.7825,827.8245 Q484.5013,828.7776 486.095,828.7776 Q486.6888,828.7776 487.3138,828.6214 Q487.9388,828.4651 488.7669,828.0901 L488.7669,830.3089 Q488.0325,830.6214 487.2356,830.7776 Q486.4544,830.9339 485.6888,830.9339 Z " fill="#000000"/><text fill="#000000" font-family="sans-serif" font-size="14" lengthAdjust="spacing" textLength="28" x="500.22" y="829.444">Palo</text><line style="stroke:#181818;stroke-width:0.5;" x1="472.22" x2="530.22" y1="840.012" y2="840.012"/><line style="stroke:#181818;stroke-width:0.5;" x1="472.22" x2="530.22" y1="848.012" y2="848.012"/></g><!--class Carta--><g id="elem_Carta"><rect codeLine="22" fill="#F1F1F1" height="48" id="Carta" rx="2.5" ry="2.5" style="stroke:#181818;stroke-width:0.5;" width="68" x="599.22" y="401.012"/><ellipse cx="614.22" cy="417.012" fill="#ADD1B2" rx="11" ry="11" style="stroke:#181818;stroke-width:1.0;"/><path d="M613.6888,423.9339 Q611.9388,423.9339 610.7981,423.1995 Q609.6731,422.4495 609.1106,421.1057 Q608.5638,419.7464 608.5638,417.9495 Q608.5638,415.9182 609.22,414.4651 Q609.8763,413.012 611.1575,412.2307 Q612.4388,411.4495 614.3138,411.4495 Q615.2044,411.4495 615.8763,411.637 Q616.5481,411.8089 617.2356,412.1526 L616.4231,414.1682 Q615.7981,413.8557 615.2513,413.7307 Q614.72,413.6057 614.2356,413.6057 Q613.0638,413.6057 612.3606,414.137 Q611.6575,414.6682 611.3606,415.6214 Q611.0638,416.5745 611.0638,417.8401 Q611.0638,419.8557 611.7825,420.8245 Q612.5013,421.7776 614.095,421.7776 Q614.6888,421.7776 615.3138,421.6214 Q615.9388,421.4651 616.7669,421.0901 L616.7669,423.3089 Q616.0325,423.6214 615.2356,423.7776 Q614.4544,423.9339 613.6888,423.9339 Z " fill="#000000"/><text fill="#000000" font-family="sans-serif" font-size="14" lengthAdjust="spacing" textLength="36" x="628.22" y="422.444">Carta</text><line style="stroke:#181818;stroke-width:0.5;" x1="600.22" x2="666.22" y1="433.012" y2="433.012"/><line style="stroke:#181818;stroke-width:0.5;" x1="600.22" x2="666.22" y1="441.012" y2="441.012"/></g><!--class Console--><g id="elem_Console"><rect codeLine="38" fill="#F1F1F1" height="48" id="Console" rx="2.5" ry="2.5" style="stroke:#181818;stroke-width:0.5;" width="85" x="235.72" y="552.012"/><ellipse cx="250.72" cy="568.012" fill="#ADD1B2" rx="11" ry="11" style="stroke:#181818;stroke-width:1.0;"/><path d="M250.1888,574.9339 Q248.4388,574.9339 247.2981,574.1995 Q246.1731,573.4495 245.6106,572.1057 Q245.0638,570.7464 245.0638,568.9495 Q245.0638,566.9182 245.72,565.4651 Q246.3763,564.012 247.6575,563.2307 Q248.9388,562.4495 250.8138,562.4495 Q251.7044,562.4495 252.3763,562.637 Q253.0481,562.8089 253.7356,563.1526 L252.9231,565.1682 Q252.2981,564.8557 251.7513,564.7307 Q251.22,564.6057 250.7356,564.6057 Q249.5638,564.6057 248.8606,565.137 Q248.1575,565.6682 247.8606,566.6214 Q247.5638,567.5745 247.5638,568.8401 Q247.5638,570.8557 248.2825,571.8245 Q249.0013,572.7776 250.595,572.7776 Q251.1888,572.7776 251.8138,572.6214 Q252.4388,572.4651 253.2669,572.0901 L253.2669,574.3089 Q252.5325,574.6214 251.7356,574.7776 Q250.9544,574.9339 250.1888,574.9339 Z " fill="#000000"/><text fill="#000000" font-family="sans-serif" font-size="14" lengthAdjust="spacing" textLength="53" x="264.72" y="573.444">Console</text><line style="stroke:#181818;stroke-width:0.5;" x1="236.72" x2="319.72" y1="584.012" y2="584.012"/><line style="stroke:#181818;stroke-width:0.5;" x1="236.72" x2="319.72" y1="592.012" y2="592.012"/></g><!--class Intervalo--><g id="elem_Intervalo"><rect codeLine="39" fill="#F1F1F1" height="48" id="Intervalo" rx="2.5" ry="2.5" style="stroke:#181818;stroke-width:0.5;" width="92" x="108.22" y="552.012"/><ellipse cx="123.22" cy="568.012" fill="#ADD1B2" rx="11" ry="11" style="stroke:#181818;stroke-width:1.0;"/><path d="M122.6888,574.9339 Q120.9388,574.9339 119.7981,574.1995 Q118.6731,573.4495 118.1106,572.1057 Q117.5638,570.7464 117.5638,568.9495 Q117.5638,566.9182 118.22,565.4651 Q118.8763,564.012 120.1575,563.2307 Q121.4388,562.4495 123.3138,562.4495 Q124.2044,562.4495 124.8763,562.637 Q125.5481,562.8089 126.2356,563.1526 L125.4231,565.1682 Q124.7981,564.8557 124.2513,564.7307 Q123.72,564.6057 123.2356,564.6057 Q122.0638,564.6057 121.3606,565.137 Q120.6575,565.6682 120.3606,566.6214 Q120.0638,567.5745 120.0638,568.8401 Q120.0638,570.8557 120.7825,571.8245 Q121.5013,572.7776 123.095,572.7776 Q123.6888,572.7776 124.3138,572.6214 Q124.9388,572.4651 125.7669,572.0901 L125.7669,574.3089 Q125.0325,574.6214 124.2356,574.7776 Q123.4544,574.9339 122.6888,574.9339 Z " fill="#000000"/><text fill="#000000" font-family="sans-serif" font-size="14" lengthAdjust="spacing" textLength="60" x="137.22" y="573.444">Intervalo</text><line style="stroke:#181818;stroke-width:0.5;" x1="109.22" x2="199.22" y1="584.012" y2="584.012"/><line style="stroke:#181818;stroke-width:0.5;" x1="109.22" x2="199.22" y1="592.012" y2="592.012"/></g><!--reverse link Mazo to Baraja--><g id="link_Mazo_Baraja"><path codeLine="24" d="M453.6692,356.1243 C441.1692,378.1943 437.47,384.732 428.43,400.692 " fill="none" id="Mazo-backto-Baraja" style="stroke:#181818;stroke-width:1.0;"/><polygon fill="none" points="462.54,340.462,448.4484,353.1674,458.89,359.0813,462.54,340.462" style="stroke:#181818;stroke-width:1.0;"/></g><!--reverse link Mazo to Descarte--><g id="link_Mazo_Descarte"><path codeLine="25" d="M505.5169,358.3924 C502.3769,405.6624 495.59,447.792 476.22,498.012 C468.63,517.692 455.08,537.242 443.58,551.722 " fill="none" id="Mazo-backto-Descarte" style="stroke:#181818;stroke-width:1.0;"/><polygon fill="none" points="506.71,340.432,499.5301,357.9947,511.5038,358.7901,506.71,340.432" style="stroke:#181818;stroke-width:1.0;"/></g><!--reverse link Mazo to Columna--><g id="link_Mazo_Columna"><path codeLine="26" d="M512.9862,358.4289 C513.3662,368.3889 513,360.442 513.22,370.012 C513.84,397.492 498.88,547.212 486.22,624.012 C484.22,636.142 486.33,640.342 480.22,651.012 C473.84,662.152 464.34,672.322 454.93,680.712 " fill="none" id="Mazo-backto-Columna" style="stroke:#181818;stroke-width:1.0;"/><polygon fill="none" points="512.3,340.442,506.9906,358.6576,518.9819,358.2001,512.3,340.442" style="stroke:#181818;stroke-width:1.0;"/></g><!--reverse link Mazo to Palo--><g id="link_Mazo_Palo"><path codeLine="27" d="M549.7103,357.1281 C586.0303,452.2581 625.22,597.422 580.22,729.012 C569.64,759.952 545.43,788.782 526.58,807.842 " fill="none" id="Mazo-backto-Palo" style="stroke:#181818;stroke-width:1.0;"/><polygon fill="none" points="543.29,340.312,544.1049,359.2681,555.3156,354.988,543.29,340.312" style="stroke:#181818;stroke-width:1.0;"/></g><!--link Mazo to Carta--><g id="link_Mazo_Carta"><path codeLine="29" d="M576.8883,350.0103 C593.6883,372.0803 599.6737,379.9594 611.8337,395.9194 " fill="none" id="Mazo-Carta" style="stroke:#181818;stroke-width:1.0;"/><polygon fill="#181818" points="569.62,340.462,570.0714,347.6589,576.8883,350.0103,576.437,342.8134,569.62,340.462" style="stroke:#181818;stroke-width:1.0;"/><polygon fill="#181818" points="615.47,400.692,613.1973,391.1089,612.4398,396.7148,606.8339,395.9573,615.47,400.692" style="stroke:#181818;stroke-width:1.0;"/></g><!--link Baraja to Descarte--><g id="link_Baraja_Descarte"><path codeLine="30" d="M416.47,449.292 C417.97,477.282 420.1581,517.9806 421.6581,545.9006 " fill="none" id="Baraja-to-Descarte" style="stroke:#181818;stroke-width:1.0;"/><polygon fill="#181818" points="421.98,551.892,425.4914,542.6904,421.7118,546.8992,417.5029,543.1195,421.98,551.892" style="stroke:#181818;stroke-width:1.0;"/><text fill="#000000" font-family="sans-serif" font-size="13" lengthAdjust="spacing" textLength="47" x="419.98" y="493.909">moverA</text></g><!--link Descarte to Columna--><g id="link_Descarte_Columna"><path codeLine="31" d="M423.22,600.302 C423.22,623.222 423.22,652.002 423.22,674.862 " fill="none" id="Descarte-to-Columna" style="stroke:#181818;stroke-width:1.0;"/><polygon fill="#181818" points="423.22,680.862,427.22,671.862,423.22,675.862,419.22,671.862,423.22,680.862" style="stroke:#181818;stroke-width:1.0;"/><text fill="#000000" font-family="sans-serif" font-size="13" lengthAdjust="spacing" textLength="47" x="424.22" y="646.909">moverA</text></g><!--link Descarte to Palo--><g id="link_Descarte_Palo"><path codeLine="32" d="M452.16,600.352 C462.05,609.432 472.54,620.442 480.22,632.012 C513.67,682.422 518.14,699.532 529.22,759.012 C530.77,767.312 531.25,769.812 529.22,778.012 C526.67,788.312 524.6585,793.6021 519.6085,802.5121 " fill="none" id="Descarte-to-Palo" style="stroke:#181818;stroke-width:1.0;"/><polygon fill="#181818" points="516.65,807.732,524.5677,801.8745,519.1154,803.3821,517.6079,797.9298,516.65,807.732" style="stroke:#181818;stroke-width:1.0;"/><text fill="#000000" font-family="sans-serif" font-size="13" lengthAdjust="spacing" textLength="47" x="524.08" y="710.409">moverA</text></g><!--link Columna to Palo--><g id="link_Columna_Palo"><path codeLine="33" d="M410.89,729.412 C404.92,744.202 400.68,763.242 409.22,778.012 C422.41,800.832 443.9325,812.6381 465.3425,820.4381 " fill="none" id="Columna-to-Palo" style="stroke:#181818;stroke-width:1.0;"/><polygon fill="#181818" points="470.98,822.492,463.8929,815.6529,466.2821,820.7804,461.1545,823.1696,470.98,822.492" style="stroke:#181818;stroke-width:1.0;"/><text fill="#000000" font-family="sans-serif" font-size="13" lengthAdjust="spacing" textLength="47" x="410.22" y="773.909">moverA</text></g><!--link Palo to Columna--><g id="link_Palo_Columna"><path codeLine="34" d="M489.54,807.522 C482.18,793.222 472.2,774.732 462.22,759.012 C455.85,748.982 451.82,743.152 445.01,734.072 " fill="none" id="Palo-to-Columna" style="stroke:#181818;stroke-width:1.0;"/><polygon fill="#181818" points="441.41,729.272,443.61,738.872,444.41,733.272,450.01,734.072,441.41,729.272" style="stroke:#181818;stroke-width:1.0;"/><text fill="#000000" font-family="sans-serif" font-size="13" lengthAdjust="spacing" textLength="47" x="473.64" y="773.909">moverA</text></g><!--link Klondike to Baraja--><g id="link_Klondike_Baraja"><path codeLine="42" d="M237.5747,290.2023 C279.0047,321.4123 337.9273,365.7922 379.4573,397.0722 " fill="none" id="Klondike-Baraja" style="stroke:#181818;stroke-width:1.0;"/><polygon fill="#181818" points="227.99,282.982,230.3756,289.7871,237.5747,290.2023,235.1891,283.3973,227.99,282.982" style="stroke:#181818;stroke-width:1.0;"/><polygon fill="#181818" points="384.25,400.682,379.4675,392.0722,380.2561,397.6738,374.6545,398.4624,384.25,400.682" style="stroke:#181818;stroke-width:1.0;"/></g><!--link Klondike to Descarte--><g id="link_Klondike_Descarte"><path codeLine="43" d="M221.0119,292.9946 C262.9519,351.4946 361.3842,488.7656 403.1142,546.9756 " fill="none" id="Klondike-Descarte" style="stroke:#181818;stroke-width:1.0;"/><polygon fill="#181818" points="214.02,283.242,214.2651,290.4489,221.0119,292.9946,220.7668,285.7877,214.02,283.242" style="stroke:#181818;stroke-width:1.0;"/><polygon fill="#181818" points="406.61,551.852,404.6172,542.2068,403.6968,547.7883,398.1153,546.8679,406.61,551.852" style="stroke:#181818;stroke-width:1.0;"/></g><!--link Klondike to Columna--><g id="link_Klondike_Columna"><path codeLine="44" d="M170.1915,292.5187 C120.3815,354.8887 6,518.552 92.22,624.012 C172.88,722.672 252.08,641.452 373.22,681.012 C374.4,681.402 369.9268,679.8199 371.1268,680.2399 " fill="none" id="Klondike-Columna" style="stroke:#181818;stroke-width:1.0;"/><polygon fill="#181818" points="177.68,283.142,170.8102,285.3342,170.1915,292.5187,177.0613,290.3265,177.68,283.142" style="stroke:#181818;stroke-width:1.0;"/><polygon fill="#181818" points="376.79,682.222,369.6167,675.4734,372.0707,680.5702,366.9739,683.0243,376.79,682.222" style="stroke:#181818;stroke-width:1.0;"/></g><!--link Klondike to Palo--><g id="link_Klondike_Palo"><path codeLine="45" d="M141.5725,287.0797 C93.6425,313.4097 35.22,357.132 35.22,424.012 C35.22,424.012 35.22,424.012 35.22,706.012 C35.22,796.582 361.7505,822.9764 465.0105,829.1064 " fill="none" id="Klondike-Palo" style="stroke:#181818;stroke-width:1.0;"/><polygon fill="#181818" points="152.09,281.302,144.9053,280.685,141.5725,287.0797,148.7572,287.6967,152.09,281.302" style="stroke:#181818;stroke-width:1.0;"/><polygon fill="#181818" points="471,829.462,462.2529,824.9357,466.0088,829.1657,461.7788,832.9216,471,829.462" style="stroke:#181818;stroke-width:1.0;"/></g><!--link ClienteKlondike to Klondike--><g id="link_ClienteKlondike_Klondike"><path codeLine="47" d="M197.22,93.062 C197.22,129.222 197.22,192.192 197.22,228.352 " fill="none" id="ClienteKlondike-to-Klondike" style="stroke:#181818;stroke-width:1.0;"/><polygon fill="#181818" points="197.22,234.352,201.22,225.352,197.22,229.352,193.22,225.352,197.22,234.352" style="stroke:#181818;stroke-width:1.0;"/></g><!--link Klondike to Menu--><g id="link_Klondike_Menu"><path codeLine="48" d="M202.3,282.982 C209.14,314.192 219.9647,363.5413 226.8247,394.8213 " fill="none" id="Klondike-to-Menu" style="stroke:#181818;stroke-width:1.0;"/><polygon fill="#181818" points="228.11,400.682,230.0892,391.034,227.0389,395.7981,222.2749,392.7478,228.11,400.682" style="stroke:#181818;stroke-width:1.0;"/></g><!--link Mazo to Console--><g id="link_Mazo_Console"><path codeLine="50" d="M418.34,340.502 C393.25,364.112 370.14,387.252 360.22,401.012 C359.02,402.682 313.656,499.3889 291.636,546.3789 " fill="none" id="Mazo-to-Console" style="stroke:#181818;stroke-width:1.0;"/><polygon fill="#181818" points="289.09,551.812,296.531,545.3597,291.2117,547.2844,289.2869,541.9651,289.09,551.812" style="stroke:#181818;stroke-width:1.0;"/></g><!--link Menu to Console--><g id="link_Menu_Console"><path codeLine="51" d="M240.25,449.292 C248.71,477.282 261.0757,518.2281 269.5057,546.1481 " fill="none" id="Menu-to-Console" style="stroke:#181818;stroke-width:1.0;"/><polygon fill="#181818" points="271.24,551.892,272.4678,542.12,269.7948,547.1054,264.8093,544.4323,271.24,551.892" style="stroke:#181818;stroke-width:1.0;"/></g><!--link Menu to Intervalo--><g id="link_Menu_Intervalo"><path codeLine="52" d="M220.88,449.292 C206.03,477.282 184.0901,518.6707 169.2901,546.5907 " fill="none" id="Menu-to-Intervalo" style="stroke:#181818;stroke-width:1.0;"/><polygon fill="#181818" points="166.48,551.892,174.2293,545.8135,168.8218,547.4743,167.161,542.0667,166.48,551.892" style="stroke:#181818;stroke-width:1.0;"/></g><!--link Klondike to Console--><g id="link_Klondike_Console"><path codeLine="53" d="M189.08,283.262 C177.74,319.772 160.63,391.922 180.22,449.012 C188.04,471.812 226.5238,517.3475 252.9238,547.0475 " fill="none" id="Klondike-to-Console" style="stroke:#181818;stroke-width:1.0;"/><polygon fill="#181818" points="256.91,551.532,253.9204,542.1478,253.5882,547.7949,247.9411,547.4628,256.91,551.532" style="stroke:#181818;stroke-width:1.0;"/></g><!--SRC=[VLFBJiGm3BptAonnMK3v0P1MWd9P8IJkY8Df8nIQ9bNJzW3qtychsSRRaaCVdh77ZkqEgmO_EJHIgreq77wA0kof91e3pz6wCfLIS3Nm3UI5gp4uTp5egsikjGq9yKGYVg-Dxbn1YVs0R-zGkRUv9wXG0uno42rIfDJAQCcX2kySPenb_xSmQL53fnNl3runw5qJreUseL31X9N00qM3eq7hkiBcWfJvY3r-8J4-SUCKEJ6NMewjekHNb9eIdVPPAMW06zdlqTzhGXQXBIogRK5E4hQ0zE6xTyFOCUP2Kx50qhwp8p3n_c4ZA-SVq_YVvJEweAGITXdUkYipvvCw3aAQYq6DiqMi9pl-_RIq9WPQzY7SpAhrEP2rFuVM8v0ZQGpyWooWBp7RnWpnIvbyVU-2sBaoHzatvjLciHV-_0S0]--></g></svg>