<?xml version="1.0" encoding="us-ascii" standalone="no"?><svg xmlns="http://www.w3.org/2000/svg" xmlns:xlink="http://www.w3.org/1999/xlink" contentStyleType="text/css" height="341px" preserveAspectRatio="none" style="width:437px;height:341px;background:#FFFFFF;" version="1.1" viewBox="0 0 437 341" width="437px" zoomAndPan="magnify"><defs/><g><!--class Baraja--><g id="elem_Baraja"><rect codeLine="1" fill="#F1F1F1" height="48" id="Baraja" rx="2.5" ry="2.5" style="stroke:#181818;stroke-width:0.5;" width="75" x="7" y="286.61"/><ellipse cx="22" cy="302.61" fill="#ADD1B2" rx="11" ry="11" style="stroke:#181818;stroke-width:1.0;"/><path d="M21.4688,309.5319 Q19.7188,309.5319 18.5781,308.7975 Q17.4531,308.0475 16.8906,306.7038 Q16.3438,305.3444 16.3438,303.5475 Q16.3438,301.5163 17,300.0631 Q17.6563,298.61 18.9375,297.8288 Q20.2188,297.0475 22.0938,297.0475 Q22.9844,297.0475 23.6563,297.235 Q24.3281,297.4069 25.0156,297.7506 L24.2031,299.7663 Q23.5781,299.4538 23.0313,299.3288 Q22.5,299.2038 22.0156,299.2038 Q20.8438,299.2038 20.1406,299.735 Q19.4375,300.2663 19.1406,301.2194 Q18.8438,302.1725 18.8438,303.4381 Q18.8438,305.4538 19.5625,306.4225 Q20.2813,307.3756 21.875,307.3756 Q22.4688,307.3756 23.0938,307.2194 Q23.7188,307.0631 24.5469,306.6881 L24.5469,308.9069 Q23.8125,309.2194 23.0156,309.3756 Q22.2344,309.5319 21.4688,309.5319 Z " fill="#000000"/><text fill="#000000" font-family="sans-serif" font-size="14" lengthAdjust="spacing" textLength="43" x="36" y="308.042">Baraja</text><line style="stroke:#181818;stroke-width:0.5;" x1="8" x2="81" y1="318.61" y2="318.61"/><line style="stroke:#181818;stroke-width:0.5;" x1="8" x2="81" y1="326.61" y2="326.61"/></g><!--class Descarte--><g id="elem_Descarte"><rect codeLine="2" fill="#F1F1F1" height="48" id="Descarte" rx="2.5" ry="2.5" style="stroke:#181818;stroke-width:0.5;" width="91" x="117" y="286.61"/><ellipse cx="132" cy="302.61" fill="#ADD1B2" rx="11" ry="11" style="stroke:#181818;stroke-width:1.0;"/><path d="M131.4688,309.5319 Q129.7188,309.5319 128.5781,308.7975 Q127.4531,308.0475 126.8906,306.7038 Q126.3438,305.3444 126.3438,303.5475 Q126.3438,301.5163 127,300.0631 Q127.6563,298.61 128.9375,297.8288 Q130.2188,297.0475 132.0938,297.0475 Q132.9844,297.0475 133.6563,297.235 Q134.3281,297.4069 135.0156,297.7506 L134.2031,299.7663 Q133.5781,299.4538 133.0313,299.3288 Q132.5,299.2038 132.0156,299.2038 Q130.8438,299.2038 130.1406,299.735 Q129.4375,300.2663 129.1406,301.2194 Q128.8438,302.1725 128.8438,303.4381 Q128.8438,305.4538 129.5625,306.4225 Q130.2813,307.3756 131.875,307.3756 Q132.4688,307.3756 133.0938,307.2194 Q133.7188,307.0631 134.5469,306.6881 L134.5469,308.9069 Q133.8125,309.2194 133.0156,309.3756 Q132.2344,309.5319 131.4688,309.5319 Z " fill="#000000"/><text fill="#000000" font-family="sans-serif" font-size="14" lengthAdjust="spacing" textLength="59" x="146" y="308.042">Descarte</text><line style="stroke:#181818;stroke-width:0.5;" x1="118" x2="207" y1="318.61" y2="318.61"/><line style="stroke:#181818;stroke-width:0.5;" x1="118" x2="207" y1="326.61" y2="326.61"/></g><!--class Columna--><g id="elem_Columna"><rect codeLine="3" fill="#F1F1F1" height="48" id="Columna" rx="2.5" ry="2.5" style="stroke:#181818;stroke-width:0.5;" width="92" x="243.5" y="286.61"/><ellipse cx="258.5" cy="302.61" fill="#ADD1B2" rx="11" ry="11" style="stroke:#181818;stroke-width:1.0;"/><path d="M257.9688,309.5319 Q256.2188,309.5319 255.0781,308.7975 Q253.9531,308.0475 253.3906,306.7038 Q252.8438,305.3444 252.8438,303.5475 Q252.8438,301.5163 253.5,300.0631 Q254.1563,298.61 255.4375,297.8288 Q256.7188,297.0475 258.5938,297.0475 Q259.4844,297.0475 260.1563,297.235 Q260.8281,297.4069 261.5156,297.7506 L260.7031,299.7663 Q260.0781,299.4538 259.5313,299.3288 Q259,299.2038 258.5156,299.2038 Q257.3438,299.2038 256.6406,299.735 Q255.9375,300.2663 255.6406,301.2194 Q255.3438,302.1725 255.3438,303.4381 Q255.3438,305.4538 256.0625,306.4225 Q256.7813,307.3756 258.375,307.3756 Q258.9688,307.3756 259.5938,307.2194 Q260.2188,307.0631 261.0469,306.6881 L261.0469,308.9069 Q260.3125,309.2194 259.5156,309.3756 Q258.7344,309.5319 257.9688,309.5319 Z " fill="#000000"/><text fill="#000000" font-family="sans-serif" font-size="14" lengthAdjust="spacing" textLength="60" x="272.5" y="308.042">Columna</text><line style="stroke:#181818;stroke-width:0.5;" x1="244.5" x2="334.5" y1="318.61" y2="318.61"/><line style="stroke:#181818;stroke-width:0.5;" x1="244.5" x2="334.5" y1="326.61" y2="326.61"/></g><!--class Palo--><g id="elem_Palo"><rect codeLine="4" fill="#F1F1F1" height="48" id="Palo" rx="2.5" ry="2.5" style="stroke:#181818;stroke-width:0.5;" width="60" x="370.5" y="286.61"/><ellipse cx="385.5" cy="302.61" fill="#ADD1B2" rx="11" ry="11" style="stroke:#181818;stroke-width:1.0;"/><path d="M384.9688,309.5319 Q383.2188,309.5319 382.0781,308.7975 Q380.9531,308.0475 380.3906,306.7038 Q379.8438,305.3444 379.8438,303.5475 Q379.8438,301.5163 380.5,300.0631 Q381.1563,298.61 382.4375,297.8288 Q383.7188,297.0475 385.5938,297.0475 Q386.4844,297.0475 387.1563,297.235 Q387.8281,297.4069 388.5156,297.7506 L387.7031,299.7663 Q387.0781,299.4538 386.5313,299.3288 Q386,299.2038 385.5156,299.2038 Q384.3438,299.2038 383.6406,299.735 Q382.9375,300.2663 382.6406,301.2194 Q382.3438,302.1725 382.3438,303.4381 Q382.3438,305.4538 383.0625,306.4225 Q383.7813,307.3756 385.375,307.3756 Q385.9688,307.3756 386.5938,307.2194 Q387.2188,307.0631 388.0469,306.6881 L388.0469,308.9069 Q387.3125,309.2194 386.5156,309.3756 Q385.7344,309.5319 384.9688,309.5319 Z " fill="#000000"/><text fill="#000000" font-family="sans-serif" font-size="14" lengthAdjust="spacing" textLength="28" x="399.5" y="308.042">Palo</text><line style="stroke:#181818;stroke-width:0.5;" x1="371.5" x2="429.5" y1="318.61" y2="318.61"/><line style="stroke:#181818;stroke-width:0.5;" x1="371.5" x2="429.5" y1="326.61" y2="326.61"/></g><!--class Mazo--><g id="elem_Mazo"><rect codeLine="6" fill="#F1F1F1" height="219.6113" id="Mazo" rx="2.5" ry="2.5" style="stroke:#181818;stroke-width:0.5;" width="180" x="135.5" y="7"/><ellipse cx="204.25" cy="23" fill="#A9DCDF" rx="11" ry="11" style="stroke:#181818;stroke-width:1.0;"/><path d="M199.4219,28.75 L202.7656,16.5625 L205.9063,16.5625 L209.2813,28.75 L206.8125,28.75 L206.0781,25.7344 L202.5625,25.7344 L201.8125,28.75 L199.4219,28.75 Z M203.8281,20.7031 L203.0781,23.7031 L205.5938,23.7031 L204.875,20.7031 Q204.7344,20.125 204.6094,19.5781 Q204.4844,19.0156 204.3438,18.4375 Q204.2344,19.0156 204.0938,19.5781 Q203.9531,20.125 203.8281,20.7031 Z " fill="#000000"/><text fill="#000000" font-family="sans-serif" font-size="14" font-style="italic" lengthAdjust="spacing" textLength="34" x="224.75" y="28.432">Mazo</text><line style="stroke:#181818;stroke-width:0.5;" x1="136.5" x2="314.5" y1="39" y2="39"/><polygon fill="none" points="146.5,49.034,150.5,53.034,146.5,57.034,142.5,53.034" style="stroke:#B38D22;stroke-width:1.0;"/><text fill="#000000" font-family="sans-serif" font-size="14" lengthAdjust="spacing" textLength="95" x="155.5" y="57.9659">Carta[] cartas;</text><polygon fill="none" points="146.5,68.1019,150.5,72.1019,146.5,76.1019,142.5,72.1019" style="stroke:#B38D22;stroke-width:1.0;"/><text fill="#000000" font-family="sans-serif" font-size="14" lengthAdjust="spacing" textLength="69" x="155.5" y="77.0339">int ultima;</text><polygon fill="none" points="146.5,87.1698,150.5,91.1698,146.5,95.1698,142.5,91.1698" style="stroke:#B38D22;stroke-width:1.0;"/><text fill="#000000" font-family="sans-serif" font-size="14" lengthAdjust="spacing" textLength="112" x="155.5" y="96.1018">Console console;</text><polygon fill="none" points="146.5,106.2377,150.5,110.2377,146.5,114.2377,142.5,110.2377" style="stroke:#B38D22;stroke-width:1.0;"/><text fill="#000000" font-family="sans-serif" font-size="14" lengthAdjust="spacing" textLength="80" x="155.5" y="115.1697">String titulo</text><line style="stroke:#181818;stroke-width:1.0;" x1="136.5" x2="314.5" y1="123.2717" y2="123.2717"/><ellipse cx="146.5" cy="138.3056" fill="#84BE84" rx="3" ry="3" style="stroke:#038048;stroke-width:1.0;"/><text fill="#000000" font-family="sans-serif" font-size="14" lengthAdjust="spacing" textLength="154" x="155.5" y="142.2376">void poner(Carta carta)</text><ellipse cx="146.5" cy="157.3735" fill="#84BE84" rx="3" ry="3" style="stroke:#038048;stroke-width:1.0;"/><text fill="#000000" font-family="sans-serif" font-size="14" lengthAdjust="spacing" textLength="100" x="155.5" y="161.3055">boolean vacia()</text><ellipse cx="146.5" cy="176.4415" fill="#84BE84" rx="3" ry="3" style="stroke:#038048;stroke-width:1.0;"/><text fill="#000000" font-family="sans-serif" font-size="14" lengthAdjust="spacing" textLength="84" x="155.5" y="180.3734">Carta sacar()</text><ellipse cx="146.5" cy="195.5094" fill="#84BE84" rx="3" ry="3" style="stroke:#038048;stroke-width:1.0;"/><text fill="#000000" font-family="sans-serif" font-size="14" lengthAdjust="spacing" textLength="93" x="155.5" y="199.4414">void mostrar()</text><polygon fill="#FFFF44" points="146.5,209.5773,150.5,213.5773,146.5,217.5773,142.5,213.5773" style="stroke:#B38D22;stroke-width:1.0;"/><text fill="#000000" font-family="sans-serif" font-size="14" font-style="italic" lengthAdjust="spacing" textLength="123" x="155.5" y="218.5093">mostrarContenido()</text></g><!--reverse link Mazo to Baraja--><g id="link_Mazo_Baraja"><path codeLine="19" d="M122.6462,226.8013 C97.0162,253.9613 83.74,268.03 66.33,286.47 " fill="none" id="Mazo-backto-Baraja" style="stroke:#181818;stroke-width:1.0;"/><polygon fill="none" points="135,213.71,118.2824,222.6834,127.0099,230.9193,135,213.71" style="stroke:#181818;stroke-width:1.0;"/></g><!--reverse link Mazo to Descarte--><g id="link_Mazo_Descarte"><path codeLine="20" d="M184.058,243.9828 C176.698,266.4128 175.26,270.76 170.19,286.2 " fill="none" id="Mazo-backto-Descarte" style="stroke:#181818;stroke-width:1.0;"/><polygon fill="none" points="189.67,226.88,178.3571,242.1121,189.759,245.8535,189.67,226.88" style="stroke:#181818;stroke-width:1.0;"/></g><!--reverse link Mazo to Columna--><g id="link_Mazo_Columna"><path codeLine="21" d="M267.5912,243.9533 C275.0812,266.3833 276.54,270.76 281.69,286.2 " fill="none" id="Mazo-backto-Columna" style="stroke:#181818;stroke-width:1.0;"/><polygon fill="none" points="261.89,226.88,261.9001,245.8537,273.2823,242.0528,261.89,226.88" style="stroke:#181818;stroke-width:1.0;"/></g><!--reverse link Mazo to Palo--><g id="link_Mazo_Palo"><path codeLine="22" d="M327.9518,230.0974 C351.6818,256.1074 363.01,268.52 379.2,286.26 " fill="none" id="Mazo-backto-Palo" style="stroke:#181818;stroke-width:1.0;"/><polygon fill="none" points="315.82,216.8,323.5193,234.1413,332.3842,226.0535,315.82,216.8" style="stroke:#181818;stroke-width:1.0;"/></g><!--SRC=[JP1DQiCm48NtEiM3R6o2JX388kus4EWoT35HH56HDKKQUz4aTuyiIyMp6VIz-T4yuoabd2ZI3obJ7Xys6OfYwtDWFusXYHVoh1JTaaGoWZFzCHuAENOOSXTTlx1qKpfKwe9Wyk96QcJWaDXRc3KVKAAAdn9T-8OucVAcXMcjIzvZPdV7BmSRkx9htTJNtZrkdCTHm4p6KTVZNrYh4-NwhjyE6tavfC4T7ksoLvFoPyK6T-TSyr9gTGfwqizZkLurkxQiUhP5Yt7OW3S0]--></g></svg>