<?xml version="1.0" encoding="us-ascii" standalone="no"?><svg xmlns="http://www.w3.org/2000/svg" xmlns:xlink="http://www.w3.org/1999/xlink" contentStyleType="text/css" height="284px" preserveAspectRatio="none" style="width:437px;height:284px;background:#FFFFFF;" version="1.1" viewBox="0 0 437 284" width="437px" zoomAndPan="magnify"><defs/><g><!--class Baraja--><g id="elem_Baraja"><rect codeLine="1" fill="#F1F1F1" height="48" id="Baraja" rx="2.5" ry="2.5" style="stroke:#181818;stroke-width:0.5;" width="75" x="7" y="229.41"/><ellipse cx="22" cy="245.41" fill="#ADD1B2" rx="11" ry="11" style="stroke:#181818;stroke-width:1.0;"/><path d="M21.4688,252.3319 Q19.7188,252.3319 18.5781,251.5975 Q17.4531,250.8475 16.8906,249.5038 Q16.3438,248.1444 16.3438,246.3475 Q16.3438,244.3163 17,242.8631 Q17.6563,241.41 18.9375,240.6288 Q20.2188,239.8475 22.0938,239.8475 Q22.9844,239.8475 23.6563,240.035 Q24.3281,240.2069 25.0156,240.5506 L24.2031,242.5663 Q23.5781,242.2538 23.0313,242.1288 Q22.5,242.0038 22.0156,242.0038 Q20.8438,242.0038 20.1406,242.535 Q19.4375,243.0663 19.1406,244.0194 Q18.8438,244.9725 18.8438,246.2381 Q18.8438,248.2538 19.5625,249.2225 Q20.2813,250.1756 21.875,250.1756 Q22.4688,250.1756 23.0938,250.0194 Q23.7188,249.8631 24.5469,249.4881 L24.5469,251.7069 Q23.8125,252.0194 23.0156,252.1756 Q22.2344,252.3319 21.4688,252.3319 Z " fill="#000000"/><text fill="#000000" font-family="sans-serif" font-size="14" lengthAdjust="spacing" textLength="43" x="36" y="250.842">Baraja</text><line style="stroke:#181818;stroke-width:0.5;" x1="8" x2="81" y1="261.41" y2="261.41"/><line style="stroke:#181818;stroke-width:0.5;" x1="8" x2="81" y1="269.41" y2="269.41"/></g><!--class Descarte--><g id="elem_Descarte"><rect codeLine="2" fill="#F1F1F1" height="48" id="Descarte" rx="2.5" ry="2.5" style="stroke:#181818;stroke-width:0.5;" width="91" x="117" y="229.41"/><ellipse cx="132" cy="245.41" fill="#ADD1B2" rx="11" ry="11" style="stroke:#181818;stroke-width:1.0;"/><path d="M131.4688,252.3319 Q129.7188,252.3319 128.5781,251.5975 Q127.4531,250.8475 126.8906,249.5038 Q126.3438,248.1444 126.3438,246.3475 Q126.3438,244.3163 127,242.8631 Q127.6563,241.41 128.9375,240.6288 Q130.2188,239.8475 132.0938,239.8475 Q132.9844,239.8475 133.6563,240.035 Q134.3281,240.2069 135.0156,240.5506 L134.2031,242.5663 Q133.5781,242.2538 133.0313,242.1288 Q132.5,242.0038 132.0156,242.0038 Q130.8438,242.0038 130.1406,242.535 Q129.4375,243.0663 129.1406,244.0194 Q128.8438,244.9725 128.8438,246.2381 Q128.8438,248.2538 129.5625,249.2225 Q130.2813,250.1756 131.875,250.1756 Q132.4688,250.1756 133.0938,250.0194 Q133.7188,249.8631 134.5469,249.4881 L134.5469,251.7069 Q133.8125,252.0194 133.0156,252.1756 Q132.2344,252.3319 131.4688,252.3319 Z " fill="#000000"/><text fill="#000000" font-family="sans-serif" font-size="14" lengthAdjust="spacing" textLength="59" x="146" y="250.842">Descarte</text><line style="stroke:#181818;stroke-width:0.5;" x1="118" x2="207" y1="261.41" y2="261.41"/><line style="stroke:#181818;stroke-width:0.5;" x1="118" x2="207" y1="269.41" y2="269.41"/></g><!--class Columna--><g id="elem_Columna"><rect codeLine="3" fill="#F1F1F1" height="48" id="Columna" rx="2.5" ry="2.5" style="stroke:#181818;stroke-width:0.5;" width="92" x="243.5" y="229.41"/><ellipse cx="258.5" cy="245.41" fill="#ADD1B2" rx="11" ry="11" style="stroke:#181818;stroke-width:1.0;"/><path d="M257.9688,252.3319 Q256.2188,252.3319 255.0781,251.5975 Q253.9531,250.8475 253.3906,249.5038 Q252.8438,248.1444 252.8438,246.3475 Q252.8438,244.3163 253.5,242.8631 Q254.1563,241.41 255.4375,240.6288 Q256.7188,239.8475 258.5938,239.8475 Q259.4844,239.8475 260.1563,240.035 Q260.8281,240.2069 261.5156,240.5506 L260.7031,242.5663 Q260.0781,242.2538 259.5313,242.1288 Q259,242.0038 258.5156,242.0038 Q257.3438,242.0038 256.6406,242.535 Q255.9375,243.0663 255.6406,244.0194 Q255.3438,244.9725 255.3438,246.2381 Q255.3438,248.2538 256.0625,249.2225 Q256.7813,250.1756 258.375,250.1756 Q258.9688,250.1756 259.5938,250.0194 Q260.2188,249.8631 261.0469,249.4881 L261.0469,251.7069 Q260.3125,252.0194 259.5156,252.1756 Q258.7344,252.3319 257.9688,252.3319 Z " fill="#000000"/><text fill="#000000" font-family="sans-serif" font-size="14" lengthAdjust="spacing" textLength="60" x="272.5" y="250.842">Columna</text><line style="stroke:#181818;stroke-width:0.5;" x1="244.5" x2="334.5" y1="261.41" y2="261.41"/><line style="stroke:#181818;stroke-width:0.5;" x1="244.5" x2="334.5" y1="269.41" y2="269.41"/></g><!--class Palo--><g id="elem_Palo"><rect codeLine="4" fill="#F1F1F1" height="48" id="Palo" rx="2.5" ry="2.5" style="stroke:#181818;stroke-width:0.5;" width="60" x="370.5" y="229.41"/><ellipse cx="385.5" cy="245.41" fill="#ADD1B2" rx="11" ry="11" style="stroke:#181818;stroke-width:1.0;"/><path d="M384.9688,252.3319 Q383.2188,252.3319 382.0781,251.5975 Q380.9531,250.8475 380.3906,249.5038 Q379.8438,248.1444 379.8438,246.3475 Q379.8438,244.3163 380.5,242.8631 Q381.1563,241.41 382.4375,240.6288 Q383.7188,239.8475 385.5938,239.8475 Q386.4844,239.8475 387.1563,240.035 Q387.8281,240.2069 388.5156,240.5506 L387.7031,242.5663 Q387.0781,242.2538 386.5313,242.1288 Q386,242.0038 385.5156,242.0038 Q384.3438,242.0038 383.6406,242.535 Q382.9375,243.0663 382.6406,244.0194 Q382.3438,244.9725 382.3438,246.2381 Q382.3438,248.2538 383.0625,249.2225 Q383.7813,250.1756 385.375,250.1756 Q385.9688,250.1756 386.5938,250.0194 Q387.2188,249.8631 388.0469,249.4881 L388.0469,251.7069 Q387.3125,252.0194 386.5156,252.1756 Q385.7344,252.3319 384.9688,252.3319 Z " fill="#000000"/><text fill="#000000" font-family="sans-serif" font-size="14" lengthAdjust="spacing" textLength="28" x="399.5" y="250.842">Palo</text><line style="stroke:#181818;stroke-width:0.5;" x1="371.5" x2="429.5" y1="261.41" y2="261.41"/><line style="stroke:#181818;stroke-width:0.5;" x1="371.5" x2="429.5" y1="269.41" y2="269.41"/></g><!--class Mazo--><g id="elem_Mazo"><rect codeLine="6" fill="#F1F1F1" height="162.4075" id="Mazo" rx="2.5" ry="2.5" style="stroke:#181818;stroke-width:0.5;" width="180" x="135.5" y="7"/><ellipse cx="203.25" cy="23" fill="#ADD1B2" rx="11" ry="11" style="stroke:#181818;stroke-width:1.0;"/><path d="M202.7188,29.9219 Q200.9688,29.9219 199.8281,29.1875 Q198.7031,28.4375 198.1406,27.0938 Q197.5938,25.7344 197.5938,23.9375 Q197.5938,21.9063 198.25,20.4531 Q198.9063,19 200.1875,18.2188 Q201.4688,17.4375 203.3438,17.4375 Q204.2344,17.4375 204.9063,17.625 Q205.5781,17.7969 206.2656,18.1406 L205.4531,20.1563 Q204.8281,19.8438 204.2813,19.7188 Q203.75,19.5938 203.2656,19.5938 Q202.0938,19.5938 201.3906,20.125 Q200.6875,20.6563 200.3906,21.6094 Q200.0938,22.5625 200.0938,23.8281 Q200.0938,25.8438 200.8125,26.8125 Q201.5313,27.7656 203.125,27.7656 Q203.7188,27.7656 204.3438,27.6094 Q204.9688,27.4531 205.7969,27.0781 L205.7969,29.2969 Q205.0625,29.6094 204.2656,29.7656 Q203.4844,29.9219 202.7188,29.9219 Z " fill="#000000"/><text fill="#000000" font-family="sans-serif" font-size="14" lengthAdjust="spacing" textLength="36" x="223.75" y="28.432">Mazo</text><line style="stroke:#181818;stroke-width:0.5;" x1="136.5" x2="314.5" y1="39" y2="39"/><polygon fill="none" points="146.5,49.034,150.5,53.034,146.5,57.034,142.5,53.034" style="stroke:#B38D22;stroke-width:1.0;"/><text fill="#000000" font-family="sans-serif" font-size="14" lengthAdjust="spacing" textLength="95" x="155.5" y="57.9659">Carta[] cartas;</text><polygon fill="none" points="146.5,68.1019,150.5,72.1019,146.5,76.1019,142.5,72.1019" style="stroke:#B38D22;stroke-width:1.0;"/><text fill="#000000" font-family="sans-serif" font-size="14" lengthAdjust="spacing" textLength="69" x="155.5" y="77.0339">int ultima;</text><polygon fill="none" points="146.5,87.1698,150.5,91.1698,146.5,95.1698,142.5,91.1698" style="stroke:#B38D22;stroke-width:1.0;"/><text fill="#000000" font-family="sans-serif" font-size="14" lengthAdjust="spacing" textLength="112" x="155.5" y="96.1018">Console console;</text><line style="stroke:#181818;stroke-width:1.0;" x1="136.5" x2="314.5" y1="104.2038" y2="104.2038"/><ellipse cx="146.5" cy="119.2377" fill="#84BE84" rx="3" ry="3" style="stroke:#038048;stroke-width:1.0;"/><text fill="#000000" font-family="sans-serif" font-size="14" lengthAdjust="spacing" textLength="154" x="155.5" y="123.1697">void poner(Carta carta)</text><ellipse cx="146.5" cy="138.3056" fill="#84BE84" rx="3" ry="3" style="stroke:#038048;stroke-width:1.0;"/><text fill="#000000" font-family="sans-serif" font-size="14" lengthAdjust="spacing" textLength="100" x="155.5" y="142.2376">boolean vacia()</text><ellipse cx="146.5" cy="157.3735" fill="#84BE84" rx="3" ry="3" style="stroke:#038048;stroke-width:1.0;"/><text fill="#000000" font-family="sans-serif" font-size="14" lengthAdjust="spacing" textLength="84" x="155.5" y="161.3055">Carta sacar()</text></g><!--reverse link Mazo to Baraja--><g id="link_Mazo_Baraja"><path codeLine="16" d="M122.6904,181.9021 C98.6404,203.5821 87.87,213.31 70.41,229.05 " fill="none" id="Mazo-backto-Baraja" style="stroke:#181818;stroke-width:1.0;"/><polygon fill="none" points="136.06,169.85,118.673,177.4456,126.7078,186.3586,136.06,169.85" style="stroke:#181818;stroke-width:1.0;"/></g><!--reverse link Mazo to Descarte--><g id="link_Mazo_Descarte"><path codeLine="17" d="M187.8871,186.642 C179.5171,208.322 177.59,213.31 171.52,229.05 " fill="none" id="Mazo-backto-Descarte" style="stroke:#181818;stroke-width:1.0;"/><polygon fill="none" points="194.37,169.85,182.2898,184.4811,193.4844,188.803,194.37,169.85" style="stroke:#181818;stroke-width:1.0;"/></g><!--reverse link Mazo to Columna--><g id="link_Mazo_Columna"><path codeLine="18" d="M263.7003,186.608 C272.2003,208.288 274.17,213.31 280.34,229.05 " fill="none" id="Mazo-backto-Columna" style="stroke:#181818;stroke-width:1.0;"/><polygon fill="none" points="257.13,169.85,258.1143,188.7981,269.2863,184.4179,257.13,169.85" style="stroke:#181818;stroke-width:1.0;"/></g><!--reverse link Mazo to Palo--><g id="link_Mazo_Palo"><path codeLine="19" d="M325.1346,182.1257 C348.3846,203.8057 358.57,213.31 375.45,229.05 " fill="none" id="Mazo-backto-Palo" style="stroke:#181818;stroke-width:1.0;"/><polygon fill="none" points="311.97,169.85,321.0428,186.5139,329.2265,177.7375,311.97,169.85" style="stroke:#181818;stroke-width:1.0;"/></g><!--SRC=[JKyx3i8m3DrzYYUnjAfoWaeCb1M97NKm8KDG6gEcxS3dxeGaHVLYlP_bfns7W0EFV6VI2HnDq3nEfi1Et3puLJop4r019tuANeGuEtGnmvSUloo7jh3MJvZTP0TUcKvy46UWyswH9ebAgRGRB69lU8WtOvNkvgjryJMuIeoonyBQSbNZBsHtuEYlQleGvMfGithlqyEqzjjofUIMIaqtn1S0]--></g></svg>