<?xml version="1.0" encoding="us-ascii" standalone="no"?><svg xmlns="http://www.w3.org/2000/svg" xmlns:xlink="http://www.w3.org/1999/xlink" contentStyleType="text/css" height="360px" preserveAspectRatio="none" style="width:437px;height:360px;background:#FFFFFF;" version="1.1" viewBox="0 0 437 360" width="437px" zoomAndPan="magnify"><defs/><g><!--class Baraja--><g id="elem_Baraja"><rect codeLine="1" fill="#F1F1F1" height="48" id="Baraja" rx="2.5" ry="2.5" style="stroke:#181818;stroke-width:0.5;" width="75" x="7" y="305.68"/><ellipse cx="22" cy="321.68" fill="#ADD1B2" rx="11" ry="11" style="stroke:#181818;stroke-width:1.0;"/><path d="M21.4688,328.6019 Q19.7188,328.6019 18.5781,327.8675 Q17.4531,327.1175 16.8906,325.7738 Q16.3438,324.4144 16.3438,322.6175 Q16.3438,320.5863 17,319.1331 Q17.6563,317.68 18.9375,316.8988 Q20.2188,316.1175 22.0938,316.1175 Q22.9844,316.1175 23.6563,316.305 Q24.3281,316.4769 25.0156,316.8206 L24.2031,318.8363 Q23.5781,318.5238 23.0313,318.3988 Q22.5,318.2738 22.0156,318.2738 Q20.8438,318.2738 20.1406,318.805 Q19.4375,319.3363 19.1406,320.2894 Q18.8438,321.2425 18.8438,322.5081 Q18.8438,324.5238 19.5625,325.4925 Q20.2813,326.4456 21.875,326.4456 Q22.4688,326.4456 23.0938,326.2894 Q23.7188,326.1331 24.5469,325.7581 L24.5469,327.9769 Q23.8125,328.2894 23.0156,328.4456 Q22.2344,328.6019 21.4688,328.6019 Z " fill="#000000"/><text fill="#000000" font-family="sans-serif" font-size="14" lengthAdjust="spacing" textLength="43" x="36" y="327.112">Baraja</text><line style="stroke:#181818;stroke-width:0.5;" x1="8" x2="81" y1="337.68" y2="337.68"/><line style="stroke:#181818;stroke-width:0.5;" x1="8" x2="81" y1="345.68" y2="345.68"/></g><!--class Descarte--><g id="elem_Descarte"><rect codeLine="2" fill="#F1F1F1" height="48" id="Descarte" rx="2.5" ry="2.5" style="stroke:#181818;stroke-width:0.5;" width="91" x="117" y="305.68"/><ellipse cx="132" cy="321.68" fill="#ADD1B2" rx="11" ry="11" style="stroke:#181818;stroke-width:1.0;"/><path d="M131.4688,328.6019 Q129.7188,328.6019 128.5781,327.8675 Q127.4531,327.1175 126.8906,325.7738 Q126.3438,324.4144 126.3438,322.6175 Q126.3438,320.5863 127,319.1331 Q127.6563,317.68 128.9375,316.8988 Q130.2188,316.1175 132.0938,316.1175 Q132.9844,316.1175 133.6563,316.305 Q134.3281,316.4769 135.0156,316.8206 L134.2031,318.8363 Q133.5781,318.5238 133.0313,318.3988 Q132.5,318.2738 132.0156,318.2738 Q130.8438,318.2738 130.1406,318.805 Q129.4375,319.3363 129.1406,320.2894 Q128.8438,321.2425 128.8438,322.5081 Q128.8438,324.5238 129.5625,325.4925 Q130.2813,326.4456 131.875,326.4456 Q132.4688,326.4456 133.0938,326.2894 Q133.7188,326.1331 134.5469,325.7581 L134.5469,327.9769 Q133.8125,328.2894 133.0156,328.4456 Q132.2344,328.6019 131.4688,328.6019 Z " fill="#000000"/><text fill="#000000" font-family="sans-serif" font-size="14" lengthAdjust="spacing" textLength="59" x="146" y="327.112">Descarte</text><line style="stroke:#181818;stroke-width:0.5;" x1="118" x2="207" y1="337.68" y2="337.68"/><line style="stroke:#181818;stroke-width:0.5;" x1="118" x2="207" y1="345.68" y2="345.68"/></g><!--class Columna--><g id="elem_Columna"><rect codeLine="3" fill="#F1F1F1" height="48" id="Columna" rx="2.5" ry="2.5" style="stroke:#181818;stroke-width:0.5;" width="92" x="243.5" y="305.68"/><ellipse cx="258.5" cy="321.68" fill="#ADD1B2" rx="11" ry="11" style="stroke:#181818;stroke-width:1.0;"/><path d="M257.9688,328.6019 Q256.2188,328.6019 255.0781,327.8675 Q253.9531,327.1175 253.3906,325.7738 Q252.8438,324.4144 252.8438,322.6175 Q252.8438,320.5863 253.5,319.1331 Q254.1563,317.68 255.4375,316.8988 Q256.7188,316.1175 258.5938,316.1175 Q259.4844,316.1175 260.1563,316.305 Q260.8281,316.4769 261.5156,316.8206 L260.7031,318.8363 Q260.0781,318.5238 259.5313,318.3988 Q259,318.2738 258.5156,318.2738 Q257.3438,318.2738 256.6406,318.805 Q255.9375,319.3363 255.6406,320.2894 Q255.3438,321.2425 255.3438,322.5081 Q255.3438,324.5238 256.0625,325.4925 Q256.7813,326.4456 258.375,326.4456 Q258.9688,326.4456 259.5938,326.2894 Q260.2188,326.1331 261.0469,325.7581 L261.0469,327.9769 Q260.3125,328.2894 259.5156,328.4456 Q258.7344,328.6019 257.9688,328.6019 Z " fill="#000000"/><text fill="#000000" font-family="sans-serif" font-size="14" lengthAdjust="spacing" textLength="60" x="272.5" y="327.112">Columna</text><line style="stroke:#181818;stroke-width:0.5;" x1="244.5" x2="334.5" y1="337.68" y2="337.68"/><line style="stroke:#181818;stroke-width:0.5;" x1="244.5" x2="334.5" y1="345.68" y2="345.68"/></g><!--class Palo--><g id="elem_Palo"><rect codeLine="4" fill="#F1F1F1" height="48" id="Palo" rx="2.5" ry="2.5" style="stroke:#181818;stroke-width:0.5;" width="60" x="370.5" y="305.68"/><ellipse cx="385.5" cy="321.68" fill="#ADD1B2" rx="11" ry="11" style="stroke:#181818;stroke-width:1.0;"/><path d="M384.9688,328.6019 Q383.2188,328.6019 382.0781,327.8675 Q380.9531,327.1175 380.3906,325.7738 Q379.8438,324.4144 379.8438,322.6175 Q379.8438,320.5863 380.5,319.1331 Q381.1563,317.68 382.4375,316.8988 Q383.7188,316.1175 385.5938,316.1175 Q386.4844,316.1175 387.1563,316.305 Q387.8281,316.4769 388.5156,316.8206 L387.7031,318.8363 Q387.0781,318.5238 386.5313,318.3988 Q386,318.2738 385.5156,318.2738 Q384.3438,318.2738 383.6406,318.805 Q382.9375,319.3363 382.6406,320.2894 Q382.3438,321.2425 382.3438,322.5081 Q382.3438,324.5238 383.0625,325.4925 Q383.7813,326.4456 385.375,326.4456 Q385.9688,326.4456 386.5938,326.2894 Q387.2188,326.1331 388.0469,325.7581 L388.0469,327.9769 Q387.3125,328.2894 386.5156,328.4456 Q385.7344,328.6019 384.9688,328.6019 Z " fill="#000000"/><text fill="#000000" font-family="sans-serif" font-size="14" lengthAdjust="spacing" textLength="28" x="399.5" y="327.112">Palo</text><line style="stroke:#181818;stroke-width:0.5;" x1="371.5" x2="429.5" y1="337.68" y2="337.68"/><line style="stroke:#181818;stroke-width:0.5;" x1="371.5" x2="429.5" y1="345.68" y2="345.68"/></g><!--class Mazo--><g id="elem_Mazo"><rect codeLine="6" fill="#F1F1F1" height="238.6792" id="Mazo" rx="2.5" ry="2.5" style="stroke:#181818;stroke-width:0.5;" width="294" x="78.5" y="7"/><ellipse cx="204.25" cy="23" fill="#A9DCDF" rx="11" ry="11" style="stroke:#181818;stroke-width:1.0;"/><path d="M199.4219,28.75 L202.7656,16.5625 L205.9063,16.5625 L209.2813,28.75 L206.8125,28.75 L206.0781,25.7344 L202.5625,25.7344 L201.8125,28.75 L199.4219,28.75 Z M203.8281,20.7031 L203.0781,23.7031 L205.5938,23.7031 L204.875,20.7031 Q204.7344,20.125 204.6094,19.5781 Q204.4844,19.0156 204.3438,18.4375 Q204.2344,19.0156 204.0938,19.5781 Q203.9531,20.125 203.8281,20.7031 Z " fill="#000000"/><text fill="#000000" font-family="sans-serif" font-size="14" font-style="italic" lengthAdjust="spacing" textLength="34" x="224.75" y="28.432">Mazo</text><line style="stroke:#181818;stroke-width:0.5;" x1="79.5" x2="371.5" y1="39" y2="39"/><polygon fill="none" points="89.5,49.034,93.5,53.034,89.5,57.034,85.5,53.034" style="stroke:#B38D22;stroke-width:1.0;"/><text fill="#000000" font-family="sans-serif" font-size="14" lengthAdjust="spacing" textLength="95" x="98.5" y="57.9659">Carta[] cartas;</text><polygon fill="none" points="89.5,68.1019,93.5,72.1019,89.5,76.1019,85.5,72.1019" style="stroke:#B38D22;stroke-width:1.0;"/><text fill="#000000" font-family="sans-serif" font-size="14" lengthAdjust="spacing" textLength="69" x="98.5" y="77.0339">int ultima;</text><polygon fill="none" points="89.5,87.1698,93.5,91.1698,89.5,95.1698,85.5,91.1698" style="stroke:#B38D22;stroke-width:1.0;"/><text fill="#000000" font-family="sans-serif" font-size="14" lengthAdjust="spacing" textLength="112" x="98.5" y="96.1018">Console console;</text><polygon fill="none" points="89.5,106.2377,93.5,110.2377,89.5,114.2377,85.5,110.2377" style="stroke:#B38D22;stroke-width:1.0;"/><text fill="#000000" font-family="sans-serif" font-size="14" lengthAdjust="spacing" textLength="80" x="98.5" y="115.1697">String titulo</text><line style="stroke:#181818;stroke-width:1.0;" x1="79.5" x2="371.5" y1="123.2717" y2="123.2717"/><ellipse cx="89.5" cy="138.3056" fill="#84BE84" rx="3" ry="3" style="stroke:#038048;stroke-width:1.0;"/><text fill="#000000" font-family="sans-serif" font-size="14" lengthAdjust="spacing" textLength="268" x="98.5" y="142.2376">Mazo(int numeroDeCartas, String titulo)</text><ellipse cx="89.5" cy="157.3735" fill="#84BE84" rx="3" ry="3" style="stroke:#038048;stroke-width:1.0;"/><text fill="#000000" font-family="sans-serif" font-size="14" lengthAdjust="spacing" textLength="154" x="98.5" y="161.3055">void poner(Carta carta)</text><ellipse cx="89.5" cy="176.4415" fill="#84BE84" rx="3" ry="3" style="stroke:#038048;stroke-width:1.0;"/><text fill="#000000" font-family="sans-serif" font-size="14" lengthAdjust="spacing" textLength="100" x="98.5" y="180.3734">boolean vacia()</text><ellipse cx="89.5" cy="195.5094" fill="#84BE84" rx="3" ry="3" style="stroke:#038048;stroke-width:1.0;"/><text fill="#000000" font-family="sans-serif" font-size="14" lengthAdjust="spacing" textLength="84" x="98.5" y="199.4414">Carta sacar()</text><ellipse cx="89.5" cy="214.5773" fill="#84BE84" rx="3" ry="3" style="stroke:#038048;stroke-width:1.0;"/><text fill="#000000" font-family="sans-serif" font-size="14" lengthAdjust="spacing" textLength="93" x="98.5" y="218.5093">void mostrar()</text><polygon fill="#FFFF44" points="89.5,228.6452,93.5,232.6452,89.5,236.6452,85.5,232.6452" style="stroke:#B38D22;stroke-width:1.0;"/><text fill="#000000" font-family="sans-serif" font-size="14" font-style="italic" lengthAdjust="spacing" textLength="123" x="98.5" y="237.5772">mostrarContenido()</text></g><!--reverse link Mazo to Baraja--><g id="link_Mazo_Baraja"><path codeLine="20" d="M106.8652,259.3052 C86.4552,282.0052 79.2,290.08 65.39,305.45 " fill="none" id="Mazo-backto-Baraja" style="stroke:#181818;stroke-width:1.0;"/><polygon fill="none" points="118.9,245.92,102.4034,255.2935,111.3269,263.3168,118.9,245.92" style="stroke:#181818;stroke-width:1.0;"/></g><!--reverse link Mazo to Descarte--><g id="link_Mazo_Descarte"><path codeLine="21" d="M183.0198,263.0971 C175.9098,285.7971 174.58,290.08 169.77,305.45 " fill="none" id="Mazo-backto-Descarte" style="stroke:#181818;stroke-width:1.0;"/><polygon fill="none" points="188.4,245.92,177.2941,261.3038,188.7456,264.8905,188.4,245.92" style="stroke:#181818;stroke-width:1.0;"/></g><!--reverse link Mazo to Columna--><g id="link_Mazo_Columna"><path codeLine="22" d="M268.6458,263.0733 C275.8658,285.7733 277.23,290.08 282.12,305.45 " fill="none" id="Mazo-backto-Columna" style="stroke:#181818;stroke-width:1.0;"/><polygon fill="none" points="263.19,245.92,262.928,264.8919,274.3635,261.2547,263.19,245.92" style="stroke:#181818;stroke-width:1.0;"/></g><!--reverse link Mazo to Palo--><g id="link_Mazo_Palo"><path codeLine="23" d="M340.3715,259.5026 C360.1115,282.2026 366.95,290.08 380.31,305.45 " fill="none" id="Mazo-backto-Palo" style="stroke:#181818;stroke-width:1.0;"/><polygon fill="none" points="328.56,245.92,335.844,263.4398,344.8991,255.5655,328.56,245.92" style="stroke:#181818;stroke-width:1.0;"/></g><!--SRC=[LL2nYiCm3Dtz5O8k2Jr_GU66fkl1GSToW-AQuk9OXordQ2__VhPZbrIBqDEJdlIKnH3WY1xlA5GfJZeezAnhEP2DaslDRxGa18w1FIg6BtmGF0MasC6Gfl3o0taQmw6YnZ54osR2XWpa0baDQiq7A56RP_R6tO0DnwIKCIbboVkYrkLzBaxQqqaNnV3nFjHNzapc2h_ajEyARxshhqfx62c9euCPbS6kXrTZPGTC_EvjsKJvxGRkuDbyM5ehlSRQcIibpYB4wYl8AFy-o_MYcRl5giDRADiC6-0V]--></g></svg>